<svg xmlns="http://www.w3.org/2000/svg" viewBox="0 0 90.52 12.94"><defs><style>.cls-1{fill:#932530;}.cls-2,.cls-6{font-size:12px;fill:#fff;font-family:Raleway-ExtraLight, Raleway;}.cls-2{letter-spacing:-0.03em;}.cls-3{letter-spacing:0em;}.cls-4{letter-spacing:-0.03em;}.cls-5{letter-spacing:-0.03em;}.cls-6{letter-spacing:-0.05em;}.cls-7{letter-spacing:-0.03em;}.cls-8{letter-spacing:-0.03em;}</style></defs><title>Asset 2navPic</title><g id="Layer_2" data-name="Layer 2"><g id="Layer_1-2" data-name="Layer 1"><g id="Layer_2-2" data-name="Layer 2"><g id="Layer_1-2-2" data-name="Layer 1-2"><path class="cls-1" d="M38.45,9.28c-.13-.07-.15.13-.16.32l.35-.06Z"/><path class="cls-1" d="M38.78,9.93a2.63,2.63,0,0,0,.49.05L39,9.91c0-.33.29-.19.4-.16C39.05,9.46,39,9.86,38.78,9.93Z"/><path class="cls-1" d="M39.45,10.27c.15.17.24,0,.22-.15C39.6,10.18,39.42,10.17,39.45,10.27Z"/><path class="cls-1" d="M48.41,3.82c0,.09,0,.18-.07.19S48.48,4.07,48.41,3.82Z"/><path class="cls-1" d="M48.34,4l-.06,0,0,0Z"/><path class="cls-1" d="M45.74,7.82a.28.28,0,0,1,0,.22.66.66,0,0,0-.09.19l-.26-.09c0,.18.13.19.16.38a.24.24,0,0,0-.15.06l-.12.12a.8.8,0,0,1-.15.21c-.12-.06-.07-.17-.1-.24-.09.19.09.39-.13.55l0-.06a1.7,1.7,0,0,1-.83.78,10.36,10.36,0,0,1-1.16.46s0,.07.07.12a5.64,5.64,0,0,1-1.36.06,9.62,9.62,0,0,0-1.42,0c.25.11.52.37.87.52a1,1,0,0,0,1,0c.19.22.52-.06.6.22a1.38,1.38,0,0,0,.92-.24l.37-.25a2.18,2.18,0,0,1,.43-.22c.12,0,.12.15.2.26-.18.12-.36.22-.54.32h.39c-.11.18-.54.2-.53.45a4.76,4.76,0,0,1,.91-.5,1.41,1.41,0,0,0,.73-.63c-.22.07-.43.26-.68.36s-.33,0-.36-.15a3.78,3.78,0,0,1,.76-.68A2.74,2.74,0,0,0,46,9.38c.1-.13.26-.29.38-.23,0,.11.1.11.08.23.08-.26-.33-.32-.08-.56l.33.3c-.15-.2-.07-.26,0-.35s.24-.17.18-.35c.2,0,.22.2.11.39.2-.17,0-.31.06-.47.09.11.18.22.26.34-.23-.36.24-.3.39-.38-.08-.05-.39-.06-.28-.29s.16,0,.22,0a.39.39,0,0,1-.18-.35c.13,0,.15.16.26.21,0-.13,0-.24.17-.31-.06-.26-.18,0-.29-.2.15-.33.44,0,.73,0a3.86,3.86,0,0,1,.11.93c0-.21,0-.41.07-.62.13.08.33-.36.4,0a1.56,1.56,0,0,0,.14-.48,3,3,0,0,0,0-.52c0-.17-.05-.35-.08-.51a4.15,4.15,0,0,0-.12-.45c0,.08-.07.19-.16.18-.11-.29.07-.26.17-.34-.13-.21-.38-.15-.59-.25a1.27,1.27,0,0,0,.07-.48,1.31,1.31,0,0,1,.12-.47l-.24.1c.12-.32-.26-.23-.22-.54,0,0,.14,0,.23.1-.17-.21.12-.31-.09-.5l.36.07c-.1-.19-.32-.44,0-.45a1.74,1.74,0,0,1-.56-.52A2.25,2.25,0,0,0,47.36,2l.19-.12c-.19,0-.32-.18-.48-.32s-.31-.3-.5-.22l0-.1a4.89,4.89,0,0,0-.54,0c-.15-.14.09-.38,0-.31a3.62,3.62,0,0,1-1-.58c-.19.24-.64.13-1,.07A4.58,4.58,0,0,0,41.53.17a6,6,0,0,0-1.25.38,6.61,6.61,0,0,0-1,.64.75.75,0,0,0-.26.35c-.07.15-.13.33-.2.45.31-.1.26-.26.55-.39s.46.22.7.33l-.18-.2c.22-.3.24.05.39-.26l.11.39c0-.22.26-.12.38,0V1.54c.21.1.34.15.44.39l-.06-.26c.09.14.69-.11.52.35,0-.07.08-.2.2-.17l0,.26c.16-.08.34-.12.37,0a.51.51,0,0,0-.13.29c.3,0,.35-.17.39-.39s.08-.45.39-.42l0,.16L43,1.62l.12.24a.33.33,0,0,1,.29-.18.63.63,0,0,1,.32.1c.22.11.42.28.65.23s.13.11.18.22a.57.57,0,0,0,.24.29L45,2.29c0,.17.19.41.29.68a.93.93,0,0,1-.06.83c.26,0,0,0,.18-.19.22,0,.26.14.23.25a2,2,0,0,0-.13.34c.22.09,0-.18.22-.2,0,.18.1.19.21.22a.26.26,0,0,1,.24.27v0c-.11.09-.13-.06-.24,0a.66.66,0,0,1,.23.17,1.6,1.6,0,0,1,.13.3c.07.22.11.46.16.68s-.1.61-.17.9a2,2,0,0,1-.39.76l.08,0a.33.33,0,0,0-.21.26c0,.09,0,.22-.16.28Z"/><path class="cls-1" d="M43.76,12l.12.2.36-.24C44,11.78,44,12,43.76,12Z"/><polygon class="cls-1" points="43.71 11.28 43.54 11.42 43.84 11.34 43.71 11.28"/><path class="cls-1" d="M47.58,8.85l0,0-.11.37c0,.12-.09.23-.14.35.06-.12.12-.24.17-.37Z"/><path class="cls-1" d="M48.63,3.77c.14,0,.15.2.26.26-.07-.11-.16-.22-.24-.33Z"/><path class="cls-1" d="M46.81.08c-.36.23-.26-.18-.29.23C46.76.4,46.67.15,46.81.08Z"/><path class="cls-1" d="M45.69.08A.43.43,0,0,0,46,.13C45.92-.12,45.82.06,45.69.08Z"/><path class="cls-1" d="M42.84,6.66c.21.12.67-.07.87-.19s.54.08.78,0,.7-.23.6-.35,0-.53,0-.57-.2-.17-.31-.24-.4-.53-.57-.46-.06,0,0,.29.21.4,0,.44a.62.62,0,0,1-.38,0s-.15.2-.4.2-.11-.06-.2.22S42.64,6.55,42.84,6.66Z"/><path class="cls-1" d="M44,6.52c.1,0,.18,0,.19,0s-.08.08-.17.1-.18,0-.19,0S43.85,6.53,44,6.52Z"/><path class="cls-1" d="M43.91,5.1a.14.14,0,0,1,.2,0c.07.07.09.16,0,.2s-.14,0-.2,0S43.87,5.14,43.91,5.1Z"/><path class="cls-1" d="M44,4.72c-.08.11-.3,0-.33.18s.15.5-.08.57-.88.12-.83-.56S44.32,4.26,44,4.72Z"/><path class="cls-1" d="M42.92,5.55c.08.11.26.17.11.29s-.5.52-.37.72-.55,0-.48-.18,0-.52-.17-.54.78-.08.88-.26"/><path class="cls-1" d="M42.41,6.71c0,.15-.18.07-.32.09a3.58,3.58,0,0,1-.78.15c-.09,0,.29-.3.36-.33S42.41,6.64,42.41,6.71Z"/><path class="cls-1" d="M43.5,4c0-.11,0-1-.21-1s-.4.2-.52.22-.07-.09-.17-.1-.08,0-.17,0-.54-.37-.75-.45.18.7.25.75,0,.32.13.3a4.12,4.12,0,0,1,1.43.3"/><path class="cls-1" d="M42.74,5.53c.14.25-1.24.1-1.25-.06a4,4,0,0,1,0-.5c0-.33-.36-.26-.38-.39-.15-.73.23-.48.48-.57s1.76,0,1.77.18S42.21,4.57,42.74,5.53Z"/><path class="cls-1" d="M41.3,5.65a2.46,2.46,0,0,1-.45.11c-.15,0-.48.26-.39.32a5.08,5.08,0,0,0,1.32.46c.06-.09.35-.17.22-.27a.53.53,0,0,1-.22-.39C41.81,5.8,41.3,5.65,41.3,5.65Z"/><path class="cls-1" d="M40.27,5.94c-.11-.21-.55-.17-.43.14s-.66.42-.87.17,0-.45,0-.65S41.07,5,41,5.54C41,5.74,40.27,5.94,40.27,5.94Z"/><path class="cls-1" d="M40.07,6.2a1.06,1.06,0,0,1,.7,1c.08.71.52.67.63.66s-.28.19-.54.11-.31,0-.23.16-.61-.75-.92-.66-.64.66-.44.93S39,8.18,39,8.12s-.41.55-.67.43.31-.21.22-.69a3.54,3.54,0,0,1,.15-1.6c.12-.13.69,1,1.3,0"/><path class="cls-1" d="M38.26,7.56c0,.26-.34.15-.35.33s.05-.22,0-.47.36-.64.36-.64S38.25,7.39,38.26,7.56Z"/><path class="cls-1" d="M37.86,6.48c-.18.1.67-.4.77-.66s-.09-.38-.26-.17S38,6.42,37.86,6.48Z"/><path class="cls-1" d="M41.3,5.44c.12,0,.08-.35,0-.53s-.53-.35-.45-.56-1.8.1-2,1.11C38.83,5.81,39.57,4.56,41.3,5.44Z"/><path class="cls-1" d="M40.57,4.12c-.24,0-.74.33-.85.3s-.56-.15-.66-.16.22,0,.4-.1.53-.37.65-.29A5,5,0,0,0,40.57,4.12Z"/></g></g><text class="cls-2" transform="translate(0 10.26)">A<tspan class="cls-3" x="7.79" y="0">Q</tspan><tspan class="cls-4" x="16.85" y="0">U</tspan><tspan class="cls-5" x="25.56" y="0">A</tspan></text><text class="cls-6" transform="translate(52.13 10.26)">L<tspan class="cls-3" x="6.42" y="0">OB</tspan><tspan class="cls-7" x="23.38" y="0">B</tspan><tspan class="cls-8" x="30.92" y="0">Y</tspan></text></g></g></svg>